<svg width="284" height="278" viewBox="0 0 284 278" fill="none" xmlns="http://www.w3.org/2000/svg">
<path d="M189.064 202.008C188.205 202.006 187.375 201.698 186.724 201.138C186.073 200.578 185.643 199.803 185.513 198.954C185.382 198.106 185.56 197.238 186.013 196.508C186.466 195.779 187.165 195.235 187.984 194.976L201.304 190.8C201.76 190.639 202.243 190.572 202.725 190.602C203.207 190.632 203.678 190.759 204.11 190.975C204.542 191.191 204.927 191.492 205.24 191.859C205.553 192.227 205.79 192.654 205.935 193.115C206.08 193.575 206.13 194.061 206.084 194.541C206.038 195.022 205.895 195.489 205.664 195.913C205.434 196.338 205.12 196.712 204.742 197.012C204.364 197.313 203.929 197.535 203.464 197.664L190.144 201.84C189.795 201.954 189.431 202.011 189.064 202.008Z" fill="#B66F39"/>
<path d="M142 216.6C141.532 216.613 141.066 216.532 140.63 216.361C140.193 216.191 139.796 215.935 139.46 215.608C139.124 215.282 138.858 214.891 138.676 214.459C138.494 214.028 138.4 213.564 138.4 213.096V96C138.397 95.2334 138.64 94.486 139.094 93.8681C139.547 93.2501 140.188 92.7944 140.92 92.568L231.832 64.224C232.372 64.0567 232.944 64.0173 233.502 64.1089C234.06 64.2005 234.59 64.4207 235.048 64.752C235.501 65.0885 235.87 65.5264 236.124 66.0306C236.378 66.5347 236.511 67.0914 236.512 67.656V136.224C236.512 137.179 236.133 138.094 235.458 138.77C234.782 139.445 233.867 139.824 232.912 139.824C231.957 139.824 231.042 139.445 230.366 138.77C229.691 138.094 229.312 137.179 229.312 136.224V72.552L145.696 98.712V212.904C145.699 213.39 145.606 213.872 145.421 214.322C145.237 214.772 144.964 215.181 144.621 215.525C144.277 215.868 143.868 216.141 143.418 216.325C142.968 216.51 142.486 216.603 142 216.6Z" fill="#B66F39"/>
<path d="M142 216.696C141.141 216.694 140.311 216.386 139.66 215.826C139.009 215.266 138.579 214.491 138.449 213.643C138.318 212.794 138.496 211.926 138.949 211.196C139.402 210.467 140.101 209.923 140.92 209.664L187.888 194.976C188.347 194.804 188.836 194.728 189.325 194.752C189.814 194.776 190.293 194.9 190.733 195.115C191.173 195.331 191.564 195.634 191.883 196.006C192.201 196.378 192.441 196.811 192.586 197.278C192.732 197.746 192.78 198.238 192.729 198.725C192.678 199.213 192.527 199.684 192.288 200.111C192.048 200.538 191.723 200.912 191.334 201.209C190.945 201.506 190.499 201.721 190.024 201.84L143.176 216.528C142.797 216.653 142.399 216.71 142 216.696Z" fill="#B66F39"/>
<path d="M156.4 195.096C155.541 195.094 154.711 194.786 154.06 194.226C153.409 193.666 152.979 192.891 152.849 192.042C152.718 191.194 152.896 190.326 153.349 189.596C153.802 188.867 154.501 188.323 155.32 188.064L188.512 177.6C188.968 177.439 189.451 177.372 189.933 177.402C190.415 177.432 190.886 177.559 191.318 177.775C191.75 177.991 192.135 178.292 192.448 178.659C192.761 179.027 192.998 179.454 193.143 179.915C193.288 180.375 193.339 180.861 193.292 181.341C193.246 181.822 193.103 182.289 192.872 182.713C192.642 183.138 192.328 183.512 191.95 183.812C191.572 184.113 191.137 184.335 190.672 184.464L157.576 194.928C157.197 195.053 156.799 195.11 156.4 195.096Z" fill="#B66F39"/>
<path d="M156.4 178.296C155.541 178.294 154.711 177.986 154.06 177.426C153.409 176.866 152.979 176.091 152.849 175.242C152.718 174.394 152.896 173.526 153.349 172.796C153.802 172.067 154.501 171.523 155.32 171.264L180.592 163.368C181.502 163.075 182.491 163.156 183.342 163.593C184.193 164.029 184.835 164.786 185.128 165.696C185.421 166.606 185.34 167.595 184.903 168.446C184.467 169.297 183.71 169.939 182.8 170.232L157.576 178.128C157.197 178.253 156.799 178.31 156.4 178.296Z" fill="#B66F39"/>
<path d="M142 216.504C141.641 216.509 141.284 216.452 140.944 216.336L50.08 187.92C49.3431 187.698 48.6975 187.244 48.2392 186.626C47.7808 186.007 47.5342 185.258 47.536 184.488V67.464C47.536 66.5092 47.9153 65.5935 48.5904 64.9184C49.2655 64.2433 50.1812 63.864 51.136 63.864C51.5107 63.8594 51.8836 63.9161 52.24 64.032L76.888 71.712C77.6184 71.9495 78.2551 72.4114 78.7076 73.0319C79.1601 73.6525 79.4052 74.4 79.408 75.168V124.656C79.6919 125.118 79.8712 125.637 79.9334 126.176C79.9956 126.715 79.9391 127.261 79.768 127.776C79.4421 128.674 78.7768 129.409 77.9151 129.822C77.0535 130.234 76.0642 130.293 75.16 129.984L74.608 129.792C73.9058 129.54 73.2985 129.078 72.869 128.468C72.4394 127.858 72.2086 127.13 72.208 126.384V77.808L54.736 72.336V181.848L138.496 208.008V98.52L118.888 92.4V139.2C118.888 140.155 118.509 141.07 117.834 141.746C117.158 142.421 116.243 142.8 115.288 142.8C114.333 142.8 113.418 142.421 112.742 141.746C112.067 141.07 111.688 140.155 111.688 139.2V87.504C111.678 86.9356 111.803 86.373 112.052 85.8622C112.302 85.3514 112.669 84.9069 113.123 84.565C113.577 84.2232 114.106 83.9938 114.665 83.8956C115.225 83.7974 115.801 83.8332 116.344 84L143.176 92.4C143.888 92.644 144.504 93.1078 144.936 93.7247C145.367 94.3415 145.591 95.0795 145.576 95.832V212.904C145.581 213.47 145.451 214.028 145.196 214.533C144.941 215.039 144.57 215.476 144.112 215.808C143.499 216.257 142.76 216.501 142 216.504Z" fill="#B66F39"/>
<path d="M115.288 142.872C114.333 142.872 113.418 142.493 112.742 141.818C112.067 141.142 111.688 140.227 111.688 139.272V87.984C111.597 87.4382 111.638 86.8785 111.808 86.352C111.942 85.8953 112.166 85.4701 112.467 85.1011C112.768 84.7322 113.139 84.427 113.559 84.2035C113.98 83.9799 114.44 83.8426 114.914 83.7994C115.388 83.7562 115.866 83.8081 116.32 83.952C117.055 84.1876 117.699 84.6476 118.159 85.2674C118.62 85.8873 118.875 86.6359 118.888 87.408V139.2C118.898 139.679 118.812 140.155 118.635 140.6C118.458 141.045 118.195 141.45 117.859 141.792C117.524 142.134 117.124 142.406 116.682 142.591C116.241 142.777 115.767 142.872 115.288 142.872Z" fill="#B66F39"/>
<path d="M76.36 130.176C75.9528 130.171 75.5485 130.106 75.16 129.984L74.608 129.792C73.9058 129.54 73.2985 129.078 72.869 128.468C72.4395 127.858 72.2086 127.13 72.208 126.384V75.168C72.208 74.2132 72.5873 73.2975 73.2624 72.6224C73.9376 71.9473 74.8532 71.568 75.808 71.568C76.7628 71.568 77.6785 71.9473 78.3536 72.6224C79.0287 73.2975 79.408 74.2132 79.408 75.168V124.656C79.6919 125.118 79.8712 125.637 79.9334 126.176C79.9956 126.715 79.9391 127.261 79.768 127.776C79.5131 128.476 79.0498 129.082 78.4405 129.511C77.8313 129.94 77.1052 130.172 76.36 130.176Z" fill="#B66F39"/>
<path d="M142 99.576C141.534 99.5729 141.072 99.4779 140.643 99.2965C140.213 99.1151 139.823 98.8508 139.495 98.5187C139.168 98.1866 138.909 97.7933 138.733 97.3611C138.558 96.929 138.469 96.4665 138.472 96C138.472 95.0452 138.851 94.1296 139.526 93.4544C140.202 92.7793 141.117 92.4 142.072 92.4C143.027 92.4 143.942 92.7793 144.618 93.4544C145.293 94.1296 145.672 95.0452 145.672 96C145.653 96.9592 145.257 97.8723 144.57 98.5416C143.883 99.2109 142.959 99.5825 142 99.576Z" fill="#B66F39"/>
<path d="M51.184 71.04C50.3558 71.0357 49.5545 70.7459 48.915 70.2196C48.2756 69.6933 47.8371 68.9627 47.6736 68.1508C47.5101 67.3389 47.6316 66.4955 48.0174 65.7627C48.4033 65.0299 49.0301 64.4525 49.792 64.128L140.992 26.16C141.874 25.7908 142.866 25.787 143.75 26.1493C144.635 26.5116 145.339 27.2104 145.708 28.092C146.077 28.9736 146.081 29.9657 145.719 30.8501C145.356 31.7346 144.658 32.4388 143.776 32.808L52.576 70.776C52.1352 70.9592 51.6613 71.0491 51.184 71.04Z" fill="#B66F39"/>
<path d="M78.688 78.84C77.88 78.8222 77.1014 78.533 76.4777 78.0189C75.854 77.5049 75.4215 76.7959 75.2497 76.0061C75.0779 75.2164 75.1768 74.3918 75.5306 73.6651C75.8844 72.9384 76.4724 72.3519 77.2 72L118.408 54.864C119.285 54.523 120.26 54.5388 121.125 54.9079C121.991 55.277 122.677 55.9701 123.038 56.8388C123.398 57.7076 123.405 58.6831 123.055 59.5565C122.706 60.4298 122.028 61.1318 121.168 61.512L80.056 78.552C79.624 78.7389 79.1587 78.8369 78.688 78.84Z" fill="#B66F39"/>
<path d="M115.192 91.056C114.477 91.057 113.778 90.8422 113.187 90.4397C112.597 90.0372 112.141 89.4657 111.88 88.8C111.683 88.3598 111.577 87.8846 111.567 87.4025C111.558 86.9204 111.645 86.4413 111.824 85.9936C112.003 85.5459 112.27 85.1387 112.61 84.7963C112.949 84.4538 113.354 84.183 113.8 84L150.088 68.904C150.97 68.5348 151.962 68.531 152.846 68.8933C153.731 69.2556 154.435 69.9544 154.804 70.836C155.173 71.7176 155.177 72.7097 154.815 73.5941C154.452 74.4785 153.754 75.1828 152.872 75.552L116.584 90.792C116.142 90.972 115.669 91.0617 115.192 91.056Z" fill="#B66F39"/>
<path d="M170.2 44.784C169.722 44.7808 169.248 44.683 168.808 44.496L141.088 32.784C140.623 32.6227 140.196 32.3678 139.833 32.035C139.471 31.7022 139.18 31.2986 138.98 30.8492C138.779 30.3997 138.673 29.9139 138.668 29.4218C138.663 28.9296 138.758 28.4417 138.949 27.988C139.14 27.5342 139.421 27.1245 139.777 26.7839C140.132 26.4433 140.553 26.1793 141.015 26.0079C141.476 25.8366 141.968 25.7617 142.459 25.7879C142.951 25.814 143.431 25.9407 143.872 26.16L171.616 37.872C172.062 38.055 172.467 38.3258 172.806 38.6683C173.146 39.0107 173.413 39.4179 173.592 39.8656C173.771 40.3133 173.858 40.7924 173.849 41.2745C173.839 41.7566 173.733 42.2318 173.536 42.672C173.241 43.307 172.77 43.8438 172.178 44.2183C171.587 44.5928 170.9 44.7892 170.2 44.784Z" fill="#B66F39"/>
<path d="M232.936 71.256C232.458 71.2528 231.984 71.1549 231.544 70.968L168.808 44.568C168.355 44.3963 167.941 44.135 167.592 43.7996C167.242 43.4642 166.964 43.0617 166.773 42.6161C166.583 42.1706 166.484 41.6912 166.484 41.2067C166.483 40.7222 166.58 40.2426 166.769 39.7965C166.958 39.3505 167.235 38.9471 167.584 38.6108C167.933 38.2744 168.346 38.0118 168.798 37.8388C169.251 37.6659 169.734 37.586 170.218 37.6041C170.702 37.6222 171.178 37.7378 171.616 37.944L234.352 64.344C235.116 64.6694 235.744 65.2487 236.129 65.984C236.515 66.7192 236.634 67.5652 236.468 68.3785C236.301 69.1918 235.859 69.9226 235.215 70.447C234.571 70.9714 233.766 71.2572 232.936 71.256Z" fill="#B66F39"/>
<path d="M115.288 142.872C114.68 142.87 114.082 142.715 113.549 142.422C113.016 142.128 112.566 141.705 112.24 141.192L93.04 111.072C92.559 110.267 92.4108 109.307 92.6269 108.395C92.843 107.483 93.4063 106.691 94.1972 106.188C94.988 105.684 95.9439 105.509 96.8618 105.7C97.7796 105.89 98.5869 106.431 99.112 107.208L118.312 137.328C118.653 137.873 118.842 138.499 118.861 139.141C118.88 139.784 118.728 140.419 118.42 140.984C118.112 141.548 117.66 142.02 117.11 142.352C116.559 142.684 115.931 142.863 115.288 142.872Z" fill="#B66F39"/>
<path d="M76.36 130.176C75.8501 130.178 75.3458 130.07 74.8818 129.859C74.4177 129.648 74.005 129.338 73.672 128.952C73.3586 128.6 73.1179 128.189 72.9638 127.743C72.8098 127.297 72.7454 126.826 72.7744 126.355C72.8034 125.884 72.9252 125.424 73.1328 125.001C73.3404 124.577 73.6297 124.199 73.984 123.888L93.688 106.44C94.4041 105.803 95.3437 105.477 96.3001 105.534C97.2566 105.59 98.1515 106.024 98.788 106.74C99.4245 107.456 99.7505 108.396 99.6943 109.352C99.638 110.309 99.2041 111.203 98.488 111.84L78.784 129.264C78.1234 129.869 77.2553 130.195 76.36 130.176Z" fill="#B66F39"/>
<path d="M151.6 75.96C151.087 75.9631 150.58 75.8567 150.112 75.648L118.48 61.416C117.669 60.9888 117.052 60.2685 116.754 59.402C116.456 58.5354 116.5 57.5878 116.876 56.7523C117.253 55.9169 117.933 55.2564 118.78 54.9055C119.626 54.5546 120.575 54.5398 121.432 54.864L152.968 69.072C153.714 69.4039 154.325 69.9798 154.701 70.7049C155.077 71.4301 155.195 72.2614 155.036 73.0625C154.877 73.8636 154.45 74.5868 153.826 75.1133C153.201 75.6398 152.416 75.9384 151.6 75.96Z" fill="#B66F39"/>
<path d="M218.512 202.08C211.316 202.099 204.276 199.984 198.282 196.001C192.288 192.019 187.61 186.349 184.839 179.708C182.067 173.067 181.327 165.754 182.713 158.692C184.098 151.631 187.546 145.139 192.621 140.037C197.696 134.935 204.17 131.453 211.224 130.03C218.278 128.608 225.595 129.309 232.251 132.045C238.906 134.781 244.601 139.43 248.615 145.402C252.629 151.375 254.781 158.404 254.8 165.6C254.813 175.246 251 184.503 244.197 191.342C237.395 198.18 228.158 202.042 218.512 202.08ZM218.512 136.512C212.732 136.493 207.076 138.191 202.262 141.39C197.448 144.59 193.693 149.147 191.472 154.483C189.251 159.82 188.665 165.696 189.788 171.366C190.911 177.036 193.693 182.245 197.78 186.332C201.867 190.419 207.076 193.201 212.746 194.324C218.416 195.447 224.292 194.861 229.629 192.64C234.965 190.419 239.522 186.664 242.722 181.85C245.921 177.036 247.619 171.38 247.6 165.6C247.568 157.895 244.494 150.515 239.045 145.067C233.597 139.618 226.217 136.544 218.512 136.512Z" fill="#B66F39"/>
<path d="M214.696 181.008C213.742 181.019 212.82 180.657 212.128 180L199.456 167.28C198.82 166.598 198.474 165.695 198.49 164.762C198.507 163.83 198.885 162.94 199.544 162.28C200.204 161.621 201.094 161.243 202.026 161.226C202.959 161.21 203.862 161.556 204.544 162.192L217.24 174.912C217.908 175.59 218.283 176.504 218.283 177.456C218.283 178.408 217.908 179.322 217.24 180C216.554 180.651 215.642 181.012 214.696 181.008Z" fill="#B66F39"/>
<path d="M214.696 181.008C213.985 181.001 213.291 180.784 212.702 180.386C212.113 179.987 211.654 179.424 211.383 178.766C211.111 178.108 211.04 177.385 211.176 176.687C211.313 175.989 211.653 175.347 212.152 174.84L233.536 153.456C234.218 152.82 235.121 152.474 236.054 152.49C236.986 152.507 237.876 152.885 238.536 153.544C239.195 154.204 239.573 155.094 239.59 156.026C239.606 156.959 239.26 157.862 238.624 158.544L217.24 180C216.554 180.651 215.642 181.012 214.696 181.008Z" fill="#B66F39"/>
</svg>
