<svg width="315" height="315" viewBox="0 0 315 315" fill="none" xmlns="http://www.w3.org/2000/svg">
<path d="M120.374 139.379V124.996H81.3793V86H66.9958V124.996H28V139.379H66.9958V178.373H81.3793V139.379H120.374Z" fill="#B66F39"/>
<path d="M248.723 178.3H139.864C103.319 178.3 73.5872 208.031 73.5872 244.576V282.863H315V244.576C315 208.032 285.268 178.3 248.723 178.3ZM300.616 268.481H87.9708V244.577C87.9708 215.963 111.249 192.684 139.864 192.684H248.722C277.336 192.684 300.615 215.963 300.615 244.577L300.616 268.481Z" fill="#B66F39"/>
<path d="M194.294 171.49C232.714 171.49 263.97 140.233 263.97 101.814C263.97 63.3941 232.714 32.1367 194.294 32.1367C155.875 32.1367 124.617 63.3932 124.617 101.814C124.617 140.234 155.875 171.49 194.294 171.49ZM194.294 46.5212C224.782 46.5212 249.586 71.3252 249.586 101.815C249.586 132.304 224.782 157.108 194.294 157.108C163.805 157.108 139.001 132.303 139.001 101.815C139.001 71.3262 163.805 46.5212 194.294 46.5212Z" fill="#B66F39"/>
</svg>
