<svg width="190" height="190" viewBox="0 0 190 190" fill="none" xmlns="http://www.w3.org/2000/svg">
<path fill-rule="evenodd" clip-rule="evenodd" d="M162.86 89.0625H130.625V65.3125H166.25L162.86 89.0625ZM157.765 124.688H130.625V100.938H161.162L157.765 124.688ZM154.375 148.438C154.375 154.992 149.055 160.312 142.5 160.312H130.625V136.562H156.073L154.375 148.438ZM71.25 65.3125H118.75V89.0625H71.25V65.3125ZM71.25 100.938H118.75V124.688H71.25V100.938ZM71.25 136.562H118.75V160.312H71.25V136.562ZM59.375 89.0625H25.4482L23.75 65.3125H59.375V89.0625ZM59.375 124.688H27.9893L26.2971 100.938H59.375V124.688ZM59.375 160.312H41.5625C35.0075 160.312 29.6875 154.992 29.6875 148.438L28.8384 136.562H59.375V160.312ZM184.062 53.4375H145.314L157.344 29.6875H172.188C175.471 29.6875 178.125 27.0334 178.125 23.75C178.125 20.4666 175.471 17.8125 172.188 17.8125H148.438L130.126 53.4375H60.3725L41.5625 17.8125H17.8125C14.5291 17.8125 11.875 20.4666 11.875 23.75C11.875 27.0334 14.5291 29.6875 17.8125 29.6875H32.6562L45.3981 53.4375H5.9375C2.65406 53.4375 0 56.0975 0 59.375C0 62.6584 2.65406 65.3125 5.9375 65.3125H11.875L17.8125 148.438C17.8125 161.553 28.4466 172.188 41.5625 172.188H142.5C155.616 172.188 166.25 161.553 166.25 148.438L178.125 65.3125H184.062C187.346 65.3125 190 62.6584 190 59.375C190 56.0975 187.346 53.4375 184.062 53.4375Z" fill="#B66F39"/>
</svg>
