<svg width="256" height="259" viewBox="0 0 256 259" fill="none" xmlns="http://www.w3.org/2000/svg">
<path d="M229.995 41.613C227.086 34.8406 222.062 29.009 215.69 23.9818C206.101 16.4465 193.311 10.5654 178.353 6.43301C163.394 2.31431 146.249 0 128 0C100.189 0.0182109 74.9645 5.3358 56.076 14.3533C46.6315 18.8852 38.73 24.349 32.921 30.9014C30.0255 34.1794 27.661 37.7518 26.005 41.6135C24.353 45.4752 23.432 49.6395 23.436 53.9008V205.096C23.432 209.356 24.353 213.526 26.005 217.383C28.914 224.155 33.938 229.986 40.31 235.019C49.9 242.554 62.6885 248.436 77.6475 252.568C92.6055 256.686 109.751 258.996 128 259C155.816 258.977 181.035 253.665 199.924 244.642C209.368 240.111 217.269 234.651 223.078 228.095C225.974 224.821 228.338 221.248 229.995 217.382C231.647 213.526 232.568 209.356 232.563 205.095V53.9003C232.568 49.639 231.647 45.4747 229.995 41.613ZM218.141 205.096C218.136 207.267 217.696 209.384 216.757 211.592C215.123 215.435 211.832 219.568 206.826 223.503C199.343 229.421 188.142 234.762 174.563 238.489C160.984 242.227 145.036 244.413 127.999 244.408C102.045 244.431 78.5905 239.307 62.248 231.455C54.0695 227.552 47.716 222.97 43.677 218.373C41.644 216.078 40.1825 213.791 39.243 211.592C38.303 209.383 37.863 207.267 37.8585 205.095V180.126C46.2005 187.84 57.914 194.002 71.9235 198.557C88.0755 203.777 107.318 206.776 127.999 206.78C155.579 206.766 180.581 201.472 199.152 192.601C206.618 189.02 212.999 184.827 218.14 180.057V205.096H218.141ZM218.141 162.481C217.115 164.708 215.649 166.94 213.671 169.194C207.281 176.476 195.712 183.332 180.786 188.134C165.864 192.964 147.642 195.838 128 195.834C101.814 195.848 78.137 190.705 61.477 182.707C53.14 178.726 46.5955 174.038 42.33 169.194C40.351 166.94 38.885 164.708 37.859 162.486V129.73C46.201 137.444 57.9145 143.605 71.924 148.16C88.076 153.376 107.318 156.374 128 156.379C155.58 156.365 180.582 151.072 199.153 142.2C206.618 138.619 212.999 134.432 218.141 129.661V162.481ZM218.141 112.084C217.115 114.311 215.649 116.542 213.671 118.792C207.281 126.074 195.712 132.934 180.786 137.732C165.864 142.563 147.642 145.437 128 145.433C101.814 145.447 78.137 140.304 61.477 132.31C53.14 128.329 46.5955 123.637 42.33 118.792C40.351 116.542 38.885 114.311 37.859 112.084V79.3279C46.201 87.0463 57.9145 93.2036 71.924 97.7629C88.076 102.983 107.318 105.982 128 105.982C155.58 105.968 180.582 100.678 199.153 91.8029C206.618 88.2214 212.999 84.0339 218.141 79.2631V112.084ZM218.141 61.6825C217.115 63.9098 215.649 66.1457 213.671 68.3957C207.281 75.6826 195.712 82.5375 180.786 87.3407C165.864 92.1706 147.642 95.0449 128 95.0409C101.814 95.0545 78.137 89.9114 61.477 81.9138C53.14 77.9281 46.5955 73.2398 42.33 68.3962C40.351 66.1462 38.885 63.9103 37.859 61.6875V53.9003C37.864 51.7282 38.304 49.6162 39.2435 47.4076C40.8775 43.5596 44.1675 39.4322 49.1735 35.4926C56.6575 29.5741 67.858 24.2342 81.4365 20.5106C95.0155 16.7682 110.963 14.5875 128 14.592C153.955 14.5688 177.409 19.6936 193.752 27.5451C201.93 31.4432 208.279 36.0258 212.323 40.6266C214.356 42.9222 215.817 45.2046 216.757 47.4081C217.696 49.6167 218.136 51.7287 218.141 53.9008V61.6825Z" fill="#B66F39"/>
</svg>
