<svg width="299" height="259" viewBox="0 0 299 259" fill="none" xmlns="http://www.w3.org/2000/svg">
<g clip-path="url(#clip0_102_655)">
<path d="M299 172.667C299 168.156 295.125 165.004 289.582 165.004C286.454 165.004 281.097 166.396 276.488 168.695C270.384 157.558 260.417 147.684 253.29 144.608C248.569 142.568 232.485 140.292 218.021 140.292C203.557 140.292 187.473 142.568 182.739 144.608C175.625 147.684 165.658 157.558 159.554 168.695C154.932 166.396 149.575 165.004 146.46 165.004C144.093 165.004 142.05 165.544 140.431 166.601C138.251 168.015 137.042 170.173 137.042 172.666C137.042 181.083 144.579 186.922 145.451 187.558C146.149 188.076 146.946 188.39 147.768 188.594C146.984 190.537 146.286 192.512 145.725 194.476C163.976 195.297 186.875 198.653 186.875 210.438C186.875 213.416 184.084 215.833 180.646 215.833C177.207 215.833 174.416 213.416 174.416 210.438C172.548 208.311 158.656 205.894 143.607 205.225C143.42 207.049 143.271 208.873 143.271 210.438C143.271 218.499 144.13 232.248 149.5 239.273V248.208C149.5 254.263 154.969 259 161.958 259H174.416C181.405 259 186.874 254.263 186.874 248.208V244.55C194.399 246.18 206.135 248.208 218.02 248.208C229.905 248.208 241.641 246.18 249.166 244.55V248.208C249.166 254.263 254.635 259 261.624 259H274.082C281.071 259 286.54 254.263 286.54 248.208V239.273C291.91 232.248 292.769 218.499 292.769 210.438C292.769 208.862 292.62 207.049 292.433 205.225C277.371 205.905 263.467 208.398 261.461 210.977C261.461 213.956 258.745 216.114 255.32 216.114C251.881 216.114 249.165 213.427 249.165 210.449C249.165 198.664 272.064 195.308 290.315 194.488C289.754 192.513 289.044 190.549 288.272 188.606C289.094 188.401 289.891 188.088 290.589 187.57C291.463 186.923 299 181.084 299 172.667ZM230.479 215.833H205.563C202.124 215.833 199.333 213.416 199.333 210.438C199.333 207.459 202.124 205.042 205.563 205.042H230.479C233.918 205.042 236.709 207.459 236.709 210.438C236.708 213.416 233.918 215.833 230.479 215.833ZM263.531 180.275C263.506 180.275 263.481 180.275 263.469 180.285C260.965 180.523 258.373 180.749 255.769 180.987C255.445 181.019 255.134 181.041 254.81 181.073C252.144 181.311 249.453 181.537 246.799 181.753C246.114 181.807 245.454 181.861 244.781 181.915C242.825 182.077 240.894 182.228 239 182.368C238.141 182.433 237.318 182.487 236.484 182.552C234.814 182.671 233.207 182.779 231.637 182.886C230.815 182.941 230.005 182.994 229.22 183.038C227.7 183.124 226.293 183.199 224.922 183.264C224.275 183.297 223.577 183.329 222.979 183.351C221.122 183.416 219.416 183.458 218.02 183.458C216.625 183.458 214.918 183.416 213.061 183.34C212.451 183.318 211.766 183.275 211.118 183.253C209.747 183.188 208.34 183.124 206.82 183.026C206.035 182.983 205.238 182.929 204.416 182.875C202.846 182.778 201.239 182.67 199.557 182.541C198.722 182.476 197.9 182.422 197.04 182.357C195.159 182.217 193.216 182.066 191.26 181.904C190.587 181.85 189.926 181.796 189.241 181.742C186.588 181.526 183.897 181.289 181.231 181.062C180.907 181.03 180.595 181.008 180.284 180.976C175.974 180.598 171.812 180.209 167.838 179.832C167.876 179.745 167.901 179.681 167.938 179.595C172.075 167.562 183.486 156.349 188.295 154.267C190.613 153.35 203.906 151.083 218.021 151.083C232.136 151.083 245.429 153.35 247.734 154.267C252.567 156.349 263.98 167.562 268.115 179.606C268.153 179.692 268.178 179.757 268.215 179.843C266.658 179.983 265.151 180.134 263.531 180.275Z" fill="#B66F39"/>
<path d="M267.854 0H31.1456C13.966 0 0 12.0976 0 26.979V32.375H299V26.979C299 12.0976 285.034 0 267.854 0Z" fill="#B66F39"/>
<path d="M0 167.271C0 182.152 13.966 194.25 31.1456 194.25H123.562C127 194.25 129.791 191.833 129.791 188.854C129.791 187.43 129.156 186.135 128.122 185.174C125.742 181.062 124.583 176.961 124.583 172.667H31.1456C27.7071 172.667 24.9163 170.249 24.9163 167.27C24.9163 153.738 35.5057 141.996 50.6425 138.716L69.3423 134.68L70.2516 131.507C65.6918 126.974 62.4402 121.287 61.0451 115.395C57.2451 113.959 54.6662 111.046 54.1558 107.527L52.8103 98.1387C52.3869 95.2897 53.4083 92.3978 55.6257 90.2286C56.3732 89.5058 57.2077 88.8795 58.1298 88.3726C57.7812 85.5884 57.4074 82.2538 57.4074 80.4731C57.4074 71.4405 60.4225 59.4724 86.0618 58.6954C94.7579 53.958 103.715 53.958 107.69 53.958C121.182 53.958 127.897 59.1274 131.161 63.4439C138.038 72.5413 133.69 78.865 130.476 81.8111L129.343 82.8041L129.018 88.5345C129.853 89.0201 130.626 89.6029 131.298 90.2721C133.478 92.4195 134.488 95.3009 134.076 98.1393L132.731 107.506C132.245 110.906 129.816 113.744 126.489 115.233C125.069 121.384 121.618 127.309 116.772 131.949L117.557 134.669L136.256 138.705C145.065 140.615 152.241 145.428 156.775 151.742C163.279 143.885 170.691 137.766 177.194 134.95C185.081 131.54 204.155 129.5 218.021 129.5C231.887 129.5 250.948 131.529 258.834 134.95C265.512 137.842 273.124 144.166 279.739 152.303C281.085 153.943 283.402 154.796 285.694 154.537C287.862 154.299 288.896 154.094 292.135 154.385C293.904 154.536 295.623 154.051 296.956 153.026C298.252 152.011 298.999 150.554 298.999 149.033V43.1665H0V167.271ZM242.938 64.75H267.854C271.293 64.75 274.084 67.1675 274.084 70.146C274.084 73.1245 271.293 75.542 267.854 75.542H242.938C239.499 75.542 236.708 73.1245 236.708 70.146C236.708 67.1675 239.499 64.75 242.938 64.75ZM180.646 64.75H218.021C221.459 64.75 224.25 67.1675 224.25 70.146C224.25 73.1245 221.459 75.542 218.021 75.542H180.646C177.207 75.542 174.416 73.1245 174.416 70.146C174.416 67.1675 177.207 64.75 180.646 64.75ZM180.646 97.125H267.854C271.292 97.125 274.083 99.5425 274.083 102.521C274.083 105.5 271.292 107.917 267.854 107.917H180.646C177.207 107.917 174.416 105.5 174.416 102.521C174.416 99.5425 177.207 97.125 180.646 97.125Z" fill="#B66F39"/>
</g>
<defs>
<clipPath id="clip0_102_655">
<rect width="299" height="259" fill="white"/>
</clipPath>
</defs>
</svg>
