<svg width="115" height="115" viewBox="0 0 115 115" fill="none" xmlns="http://www.w3.org/2000/svg">
<path fill-rule="evenodd" clip-rule="evenodd" d="M84.5859 49.5918L94.4366 51.2018C95.2435 51.3331 95.8348 52.0298 95.8333 52.8468V62.0133C95.8333 62.8216 95.2531 63.515 94.4548 63.6549L84.5906 65.3866C84.019 67.3632 83.2341 69.2669 82.2456 71.0666L88.0761 79.1617C88.5543 79.8248 88.4796 80.7367 87.9026 81.3151L81.4219 87.8001C80.8488 88.3717 79.9485 88.4532 79.2853 87.9851L71.1093 82.2499C69.3062 83.2533 67.391 84.0535 65.3924 84.6414L63.6506 94.4581C63.5107 95.2535 62.8188 95.8333 62.0104 95.8333H52.843C52.0279 95.8333 51.3326 95.2449 51.2014 94.4433L49.5741 84.675C47.5791 84.0985 45.6539 83.3031 43.8322 82.3017L35.7148 87.9865C35.0531 88.4518 34.1513 88.3717 33.5796 87.8001L27.099 81.3151C26.524 80.7367 26.4489 79.8282 26.9224 79.1665L32.6578 71.1452C31.6461 69.3148 30.8427 67.3833 30.261 65.3784L20.5418 63.6549C19.7467 63.5135 19.1667 62.8216 19.1667 62.0133V52.8468C19.1667 52.0332 19.7567 51.3365 20.5601 51.2033L30.2793 49.5851C30.8644 47.575 31.6677 45.6433 32.6762 43.8183L27.0107 35.7133C26.5456 35.0517 26.6257 34.1516 27.1974 33.58L33.6763 27.1017C34.2547 26.5267 35.1597 26.45 35.8248 26.925L43.8755 32.675C45.684 31.685 47.6042 30.8967 49.6043 30.3217L51.198 20.565C51.3293 19.7583 52.026 19.1667 52.843 19.1667H62.0104C62.8207 19.1667 63.5121 19.75 63.652 20.5467L65.3708 30.3566C67.3593 30.935 69.276 31.7317 71.0911 32.735L79.1636 26.9333C79.8268 26.455 80.7372 26.53 81.3155 27.1066L87.7977 33.585C88.3694 34.1583 88.4494 35.06 87.9841 35.7217L82.2336 43.9167C83.2207 45.715 84.0089 47.615 84.5859 49.5918ZM45.8323 57.5C45.8323 63.9433 51.0562 69.1667 57.5 69.1667C63.9438 69.1667 69.1677 63.9433 69.1677 57.5C69.1677 51.0566 63.9438 45.8333 57.5 45.8333C51.0562 45.8333 45.8323 51.0566 45.8323 57.5Z" fill="#B66F39"/>
</svg>
