<svg width="61" height="72" viewBox="0 0 61 72" fill="none" xmlns="http://www.w3.org/2000/svg">
<path d="M58.6454 23.7348H2.30196C1.86929 23.7348 1.5188 23.3872 1.5188 22.9581V18.2979C1.5188 17.8687 1.87009 17.5211 2.30196 17.5211H58.6445C59.0756 17.5211 59.4277 17.8687 59.4277 18.2979V22.9581C59.4277 23.3872 59.0764 23.7348 58.6454 23.7348ZM3.08512 22.1814H57.8622V19.0746H3.08512V22.1814Z" fill="#B66F39"/>
<path d="M58.6454 54.7996H2.30196C1.86929 54.7996 1.5188 54.452 1.5188 54.0229V49.3627C1.5188 48.9336 1.87009 48.586 2.30196 48.586H58.6445C59.0756 48.586 59.4277 48.9336 59.4277 49.3627V54.0229C59.4277 54.4528 59.0764 54.7996 58.6454 54.7996ZM3.08512 53.247H57.8622V50.1402H3.08512V53.247Z" fill="#B66F39"/>
<path d="M50.7131 72H10.2352C9.93948 72 9.66876 71.8346 9.53581 71.5733C9.49795 71.4998 5.72877 64.0404 3.10856 54.2158C2.99818 53.8003 3.24715 53.376 3.66532 53.2665C4.0851 53.1554 4.51133 53.4039 4.62252 53.8178C6.8447 62.153 9.90242 68.747 10.7234 70.4474H50.2232C51.0442 68.7478 54.1003 62.1562 56.3225 53.8234C56.4329 53.4087 56.8616 53.1634 57.2797 53.2721C57.6979 53.3823 57.9469 53.8067 57.8365 54.2214C55.2163 64.0436 51.4487 71.4998 51.4108 71.5733C51.2795 71.8346 51.0088 72 50.7131 72Z" fill="#B66F39"/>
<path d="M18.2739 71.3935C17.9476 71.3935 17.643 71.1898 17.5326 70.8669C15.6513 65.3597 14.1824 59.739 13.1672 54.1615C13.0899 53.7387 13.3727 53.3352 13.7981 53.2585C14.2243 53.1826 14.6312 53.4639 14.7078 53.885C15.7101 59.3882 17.1596 64.9338 19.0168 70.3675C19.1554 70.7742 18.9354 71.2153 18.5261 71.3528C18.4415 71.3807 18.3569 71.3935 18.2739 71.3935Z" fill="#B66F39"/>
<path d="M41.179 71.3935C41.096 71.3935 41.0114 71.3807 40.9276 71.3528C40.5175 71.2145 40.2983 70.7734 40.4369 70.3675C42.2949 64.9322 43.7436 59.3866 44.7459 53.885C44.8224 53.4639 45.2277 53.1826 45.6556 53.2585C46.081 53.3352 46.3638 53.7387 46.2872 54.1615C45.2712 59.7382 43.8024 65.3589 41.9202 70.8669C41.8098 71.1898 41.5061 71.3935 41.179 71.3935Z" fill="#B66F39"/>
<path d="M29.4976 71.3935C29.0649 71.3935 28.7144 71.0459 28.7144 70.6168V54.0224C28.7144 53.5933 29.0649 53.2457 29.4976 53.2457C29.9303 53.2457 30.2807 53.5933 30.2807 54.0224V70.6168C30.2807 71.0459 29.9303 71.3935 29.4976 71.3935Z" fill="#B66F39"/>
<path d="M2.76041 50.1458C2.39623 50.1458 2.07072 49.8933 1.99417 49.5257C1.0402 44.9271 0.556763 40.5545 0.556763 36.5288V35.4716C0.556763 31.5418 1.01764 27.2803 1.92649 22.8055C2.0119 22.3859 2.42443 22.1103 2.84904 22.1974C3.27285 22.2821 3.54761 22.692 3.4622 23.1123C2.57349 27.4864 2.12309 31.6448 2.12309 35.4716V36.5288C2.12309 40.449 2.59605 44.7169 3.52907 49.2125C3.61609 49.6328 3.34376 50.0428 2.91995 50.1291C2.86596 50.1402 2.81279 50.1458 2.76041 50.1458Z" fill="#B66F39"/>
<path d="M58.1877 50.1403C58.1345 50.1403 58.0822 50.1347 58.029 50.1235C57.6052 50.038 57.3328 49.6272 57.4198 49.2069C58.3513 44.7129 58.8234 40.4475 58.8234 36.5288V35.4716C58.8234 31.6424 58.3722 27.4841 57.4843 23.1107C57.3989 22.6904 57.6736 22.2805 58.0975 22.1958C58.5229 22.1103 58.9338 22.3836 59.02 22.8039C59.9289 27.2771 60.3905 31.5394 60.3905 35.4708V36.528C60.3905 40.5513 59.9071 44.9223 58.9548 49.5194C58.8782 49.8877 58.5511 50.1403 58.1877 50.1403Z" fill="#B66F39"/>
<path d="M13.1897 50.145C12.8045 50.145 12.4686 49.8622 12.4154 49.473C11.1786 40.5234 11.069 31.5713 12.0883 22.8686C12.1382 22.4419 12.5306 22.1326 12.956 22.1862C13.3855 22.2357 13.6941 22.6209 13.6441 23.0476C12.6394 31.6209 12.749 40.4411 13.9672 49.2621C14.026 49.6872 13.7263 50.0787 13.2977 50.1378C13.2606 50.1426 13.2251 50.145 13.1897 50.145Z" fill="#B66F39"/>
<path d="M46.2622 50.1402C46.2267 50.1402 46.1905 50.1378 46.155 50.133C45.7264 50.0747 45.4266 49.6832 45.4847 49.2573C46.7029 40.4371 46.8109 31.6193 45.8078 23.0468C45.757 22.6201 46.0648 22.2349 46.495 22.1854C46.9269 22.1342 47.3137 22.4411 47.3628 22.8678C48.3828 31.5689 48.2725 40.5194 47.0365 49.469C46.9833 49.8582 46.6481 50.1402 46.2622 50.1402Z" fill="#B66F39"/>
<path d="M29.4967 50.1395C29.0641 50.1395 28.7136 49.7919 28.7136 49.3628V22.9581C28.7136 22.529 29.0641 22.1814 29.4967 22.1814C29.9294 22.1814 30.2799 22.529 30.2799 22.9581V49.3628C30.2799 49.7919 29.9294 50.1395 29.4967 50.1395Z" fill="#B66F39"/>
<path d="M57.1645 19.0763C56.8172 19.0763 56.4998 18.8446 56.4079 18.4954C54.1761 10.0052 51.0547 3.27301 50.2232 1.5534H10.7242C9.89273 3.27381 6.76975 10.0108 4.54031 18.4938C4.43154 18.9093 4.00531 19.1554 3.58472 19.05C3.16575 18.9413 2.91517 18.517 3.02475 18.1023C5.64899 8.11941 9.49712 0.502619 9.53579 0.426706C9.66874 0.165409 9.93866 0 10.2344 0H50.7123C51.0088 0 51.2787 0.165409 51.4116 0.426706C51.4503 0.501819 55.2984 8.11941 57.9235 18.1039C58.0323 18.5186 57.7809 18.9429 57.3635 19.0516C57.2966 19.0675 57.2306 19.0763 57.1645 19.0763Z" fill="#B66F39"/>
<path d="M13.5257 19.0755C13.4838 19.0755 13.4403 19.0723 13.3976 19.0652C12.9706 18.9956 12.6822 18.5953 12.7523 18.1726C14.5434 7.41623 17.4408 1.14828 17.5632 0.886185C17.7453 0.496236 18.2102 0.330029 18.6034 0.508222C18.995 0.688814 19.1658 1.15068 18.9845 1.53983C18.9555 1.60216 16.0517 7.89728 14.2984 18.4251C14.234 18.8055 13.902 19.0755 13.5257 19.0755Z" fill="#B66F39"/>
<path d="M45.9255 19.0748C45.5484 19.0748 45.2164 18.8047 45.1536 18.4251C43.4003 7.89648 40.4965 1.60216 40.4675 1.54063C40.2854 1.15148 40.4562 0.689617 40.8486 0.509026C41.241 0.330033 41.7059 0.49704 41.8888 0.886989C42.0105 1.14909 44.9086 7.41544 46.6998 18.1726C46.7699 18.5953 46.4814 18.9956 46.0552 19.0652C46.0109 19.0716 45.9674 19.0748 45.9255 19.0748Z" fill="#B66F39"/>
<path d="M29.4968 19.0755C29.0641 19.0755 28.7136 18.7279 28.7136 18.2988V0.776702C28.7136 0.347598 29.0641 0 29.4968 0C29.9295 0 30.2799 0.347598 30.2799 0.776702V18.2988C30.2799 18.7279 29.9295 19.0755 29.4968 19.0755Z" fill="#B66F39"/>
</svg>
