<svg width="30" height="36" viewBox="0 0 30 36" fill="none" xmlns="http://www.w3.org/2000/svg">
<path d="M29.125 11.8675H0.87503C0.658092 11.8675 0.482361 11.6937 0.482361 11.4792V9.14909C0.482361 8.93454 0.658496 8.76074 0.87503 8.76074H29.1246C29.3407 8.76074 29.5173 8.93454 29.5173 9.14909V11.4792C29.5173 11.6937 29.3411 11.8675 29.125 11.8675ZM1.2677 11.0908H28.7323V9.53744H1.2677V11.0908Z" fill="#B66F39"/>
<path d="M29.125 27.3998H0.87503C0.658092 27.3998 0.482361 27.226 0.482361 27.0114V24.6813C0.482361 24.4668 0.658496 24.293 0.87503 24.293H29.1246C29.3407 24.293 29.5173 24.4668 29.5173 24.6813V27.0114C29.5173 27.2264 29.3411 27.3998 29.125 27.3998ZM1.2677 26.6235H28.7323V25.0701H1.2677V26.6235Z" fill="#B66F39"/>
<path d="M25.1478 36.0001H4.85262C4.70436 36.0001 4.56862 35.9174 4.50197 35.7868C4.48298 35.75 2.59316 32.0203 1.27942 27.108C1.22407 26.9003 1.3489 26.6881 1.55857 26.6334C1.76904 26.5778 1.98275 26.7021 2.03849 26.909C3.15267 31.0766 4.68578 34.3736 5.09744 35.2238H24.9022C25.3138 34.374 26.8461 31.0782 27.9603 26.9118C28.0157 26.7045 28.2306 26.5818 28.4402 26.6362C28.6499 26.6913 28.7747 26.9035 28.7194 27.1108C27.4056 32.0219 25.5166 35.75 25.4976 35.7868C25.4318 35.9174 25.2961 36.0001 25.1478 36.0001Z" fill="#B66F39"/>
<path d="M8.88316 35.6967C8.71955 35.6967 8.56685 35.5949 8.5115 35.4334C7.56821 32.6798 6.83175 29.8695 6.32273 27.0807C6.28395 26.8694 6.42575 26.6676 6.63905 26.6292C6.85276 26.5913 7.05677 26.7319 7.09515 26.9425C7.5977 29.6941 8.32446 32.4669 9.25563 35.1837C9.32512 35.3871 9.21483 35.6076 9.00961 35.6764C8.96719 35.6904 8.92477 35.6967 8.88316 35.6967Z" fill="#B66F39"/>
<path d="M20.3675 35.6967C20.3259 35.6967 20.2835 35.6904 20.2415 35.6764C20.0358 35.6072 19.926 35.3867 19.9955 35.1837C20.927 32.4661 21.6534 29.6933 22.1559 26.9425C22.1943 26.7319 22.3975 26.5913 22.612 26.6292C22.8253 26.6676 22.9671 26.8694 22.9288 27.0807C22.4193 29.8691 21.6829 32.6794 20.7392 35.4334C20.6838 35.5949 20.5315 35.6967 20.3675 35.6967Z" fill="#B66F39"/>
<path d="M14.5106 35.6969C14.2937 35.6969 14.1179 35.5232 14.1179 35.3086V27.0114C14.1179 26.7968 14.2937 26.623 14.5106 26.623C14.7275 26.623 14.9033 26.7968 14.9033 27.0114V35.3086C14.9033 35.5232 14.7275 35.6969 14.5106 35.6969Z" fill="#B66F39"/>
<path d="M1.10489 25.0731C0.922288 25.0731 0.759079 24.9468 0.720701 24.7631C0.242388 22.4637 0 20.2774 0 18.2646V17.736C0 15.7711 0.231077 13.6403 0.686767 11.4029C0.729589 11.1932 0.936427 11.0553 1.14932 11.0989C1.36182 11.1412 1.49958 11.3462 1.45675 11.5563C1.01116 13.7434 0.785338 15.8226 0.785338 17.736V18.2646C0.785338 20.2247 1.02248 22.3586 1.49028 24.6064C1.53391 24.8166 1.39737 25.0216 1.18487 25.0647C1.15781 25.0703 1.13115 25.0731 1.10489 25.0731Z" fill="#B66F39"/>
<path d="M28.8955 25.0699C28.8688 25.0699 28.8426 25.0671 28.8159 25.0615C28.6034 25.0188 28.4669 24.8134 28.5105 24.6033C28.9775 22.3563 29.2142 20.2235 29.2142 18.2642V17.7356C29.2142 15.821 28.988 13.7418 28.5428 11.5551C28.5 11.345 28.6378 11.14 28.8502 11.0977C29.0635 11.0549 29.2696 11.1916 29.3128 11.4017C29.7685 13.6383 30 15.7695 30 17.7352V18.2638C30 20.2755 29.7576 22.4609 29.2801 24.7595C29.2417 24.9437 29.0777 25.0699 28.8955 25.0699Z" fill="#B66F39"/>
<path d="M6.33399 25.0723C6.14089 25.0723 5.97243 24.9309 5.94577 24.7363C5.32566 20.2615 5.27072 15.7854 5.78175 11.4341C5.8068 11.2207 6.00354 11.0661 6.21684 11.0929C6.43216 11.1176 6.58689 11.3102 6.56184 11.5236C6.05808 15.8102 6.11302 20.2203 6.72383 24.6308C6.75333 24.8434 6.60305 25.0391 6.38813 25.0687C6.36954 25.0711 6.35177 25.0723 6.33399 25.0723Z" fill="#B66F39"/>
<path d="M22.9162 25.0701C22.8984 25.0701 22.8803 25.0689 22.8625 25.0665C22.6476 25.0373 22.4973 24.8415 22.5264 24.6286C23.1372 20.2185 23.1913 15.8096 22.6884 11.5233C22.6629 11.31 22.8172 11.1174 23.033 11.0926C23.2495 11.0671 23.4434 11.2205 23.468 11.4338C23.9795 15.7844 23.9241 20.2596 23.3044 24.7344C23.2778 24.929 23.1097 25.0701 22.9162 25.0701Z" fill="#B66F39"/>
<path d="M14.5102 25.0699C14.2932 25.0699 14.1175 24.8961 14.1175 24.6815V11.4792C14.1175 11.2646 14.2932 11.0908 14.5102 11.0908C14.7271 11.0908 14.9028 11.2646 14.9028 11.4792V24.6815C14.9028 24.8961 14.7271 25.0699 14.5102 25.0699Z" fill="#B66F39"/>
<path d="M28.3825 9.53817C28.2083 9.53817 28.0492 9.4223 28.0031 9.2477C26.8841 5.00261 25.3191 1.63651 24.9022 0.776702H5.09782C4.68092 1.63691 3.11509 5.00541 1.99727 9.2469C1.94273 9.45466 1.72903 9.57772 1.51815 9.52498C1.30808 9.47065 1.18244 9.25849 1.23739 9.05113C2.55315 4.0597 4.48256 0.251309 4.50195 0.213353C4.56861 0.0827043 4.70394 0 4.8522 0H25.1474C25.296 0 25.4314 0.0827043 25.498 0.213353C25.5174 0.25091 27.4468 4.0597 28.763 9.05193C28.8175 9.25929 28.6915 9.47144 28.4822 9.52578C28.4487 9.53377 28.4156 9.53817 28.3825 9.53817Z" fill="#B66F39"/>
<path d="M6.50246 9.53762C6.48145 9.53762 6.45964 9.53602 6.43823 9.53243C6.22412 9.49767 6.07949 9.2975 6.11464 9.08614C7.01269 3.70796 8.4654 0.573988 8.5268 0.44294C8.6181 0.247966 8.8512 0.164862 9.04834 0.253959C9.24468 0.344254 9.33032 0.575187 9.23943 0.769762C9.22488 0.800926 7.76894 3.94849 6.88988 9.2124C6.85756 9.40258 6.69112 9.53762 6.50246 9.53762Z" fill="#B66F39"/>
<path d="M22.7474 9.53748C22.5583 9.53748 22.3919 9.40244 22.3603 9.21266C21.4813 3.94835 20.0253 0.801187 20.0108 0.770423C19.9195 0.575848 20.0051 0.344915 20.2019 0.25462C20.3986 0.165123 20.6317 0.248627 20.7234 0.443601C20.7844 0.57465 22.2375 3.70783 23.1356 9.0864C23.1707 9.29776 23.0261 9.49793 22.8124 9.53269C22.7902 9.53588 22.7684 9.53748 22.7474 9.53748Z" fill="#B66F39"/>
<path d="M14.5102 9.53777C14.2932 9.53777 14.1175 9.36397 14.1175 9.14942V0.388351C14.1175 0.173799 14.2932 0 14.5102 0C14.7271 0 14.9028 0.173799 14.9028 0.388351V9.14942C14.9028 9.36397 14.7271 9.53777 14.5102 9.53777Z" fill="#B66F39"/>
</svg>
