<svg width="191" height="191" viewBox="0 0 191 191" fill="none" xmlns="http://www.w3.org/2000/svg">
<path d="M16.9909 166.846C7.68487 166.846 0.00369263 159.313 0.00369263 149.859V17.3588C0.00369263 8.05277 7.53715 0.371597 16.9909 0.371597H141.662C150.968 0.371597 158.65 7.90506 158.65 17.3588V79.9899L158.059 79.8422C155.548 79.1037 153.184 78.8082 150.525 78.8082H150.377L150.23 78.3651H149.787V17.3588C149.787 13.0751 145.946 9.23449 141.662 9.23449H16.9909C12.7072 9.23449 8.86659 13.0751 8.86659 17.3588V149.859C8.86659 154.143 12.7072 157.983 16.9909 157.983H82.4286L82.5763 158.131C84.2012 160.347 83.3149 161.972 82.724 163.153C82.1332 164.187 81.8378 164.926 82.8718 165.96L83.758 166.846H16.9909Z" fill="#B66F39"/>
<path d="M26.5924 32.8689C24.9675 32.8689 23.6381 30.8009 23.6381 28.2897C23.6381 25.7786 24.9675 23.7106 26.5924 23.7106H76.8154C78.4403 23.7106 79.7697 25.7786 79.7697 28.2897C79.7697 30.8009 78.4403 32.8689 76.8154 32.8689H26.5924Z" fill="#B66F39"/>
<path d="M76.8154 24.1537H26.5924C25.2629 24.1537 24.0812 25.9263 24.0812 28.2897C24.0812 30.6531 25.2629 32.4257 26.5924 32.4257H76.8154C78.1449 32.4257 79.3266 30.6531 79.3266 28.2897C79.3266 25.9263 78.2926 24.1537 76.8154 24.1537ZM26.0015 56.5033C24.6721 56.5033 23.6381 54.583 23.6381 51.9241C23.6381 49.2652 24.6721 47.3449 26.0015 47.3449H62.044C63.3734 47.3449 64.4074 49.2652 64.4074 51.9241C64.4074 54.583 63.3734 56.5033 62.044 56.5033H26.0015Z" fill="#B66F39"/>
<path d="M62.044 47.7881H26.0015C24.9675 47.7881 24.2289 49.5607 24.2289 51.9241C24.2289 54.2875 24.9675 56.0601 26.0015 56.0601H62.044C63.078 56.0601 63.8165 54.2875 63.8165 51.9241C63.8165 49.5607 62.9302 47.7881 62.044 47.7881ZM136.492 190.628C131.322 190.628 125.709 190.333 118.471 189.742C107.983 188.856 98.3818 183.981 89.0758 174.971L47.1247 133.906C37.3756 124.452 36.9324 112.044 45.6476 102.59C49.3405 98.7497 55.1014 96.3863 61.3054 96.3863C67.5094 96.3863 73.1226 98.7497 76.6677 102.886C76.8154 103.033 77.1109 103.329 77.7017 103.624C77.8494 103.772 78.1449 103.92 78.2926 104.067V84.2737V74.5245C78.2926 66.991 78.2926 59.3098 78.4403 51.7764C78.588 40.5501 87.3032 31.9826 98.825 31.9826H98.9727C110.051 31.9826 118.471 40.1069 119.062 51.1855C119.21 53.6967 119.21 56.3555 119.062 59.0144V62.4119H121.278C128.959 62.4119 134.867 65.0707 139.151 70.6839C139.299 70.9793 140.185 71.2748 141.367 71.2748C141.81 71.2748 142.253 71.2748 142.549 71.127C143.878 70.9793 145.207 70.8316 146.389 70.8316C152.298 70.8316 157.468 73.1951 161.899 78.0696C162.638 78.8082 164.263 79.3991 165.74 79.3991H166.331C167.365 79.2514 168.546 79.1036 169.58 79.1036C180.659 79.1036 189.522 86.9325 189.67 97.1249C190.113 115.885 190.408 134.349 188.34 152.666C185.829 174.823 174.012 186.64 150.968 189.594C146.685 190.333 141.81 190.628 136.492 190.628ZM60.5668 104.806C57.4648 104.806 54.5105 105.988 52.2948 108.056C49.6359 110.715 48.1588 113.817 48.1588 117.214C48.1588 120.759 49.7836 124.304 52.7379 127.259L58.3511 132.872C70.6114 144.984 83.3149 157.393 96.0184 169.653C102.222 175.561 109.313 179.402 117.142 180.879C123.198 182.061 129.254 182.652 135.163 182.652C140.481 182.652 145.798 182.209 150.968 181.175C169.728 177.777 178.296 168.767 180.068 151.336C181.693 134.644 181.545 117.51 181.25 100.965V98.3066C181.102 92.2503 176.818 88.1143 170.762 88.1143C169.137 88.1143 167.66 88.4097 166.035 89.0006V112.044C166.035 114.112 166.035 118.1 161.899 118.1H161.752C160.422 118.1 159.388 117.805 158.797 117.066C157.616 115.885 157.468 113.669 157.468 111.896V111.01C157.468 104.215 157.616 97.2726 157.468 90.33C157.32 84.2737 153.036 79.9899 147.128 79.9899C145.651 79.9899 144.173 80.2854 142.844 80.7285V104.658C142.844 106.726 142.401 108.351 141.367 109.385C140.628 110.124 139.594 110.567 138.265 110.567H138.117C134.129 110.419 134.129 106.283 134.129 104.806V95.0569V82.6488C134.129 79.8422 132.947 76.8879 130.731 74.6722C128.663 72.6042 125.857 71.4225 123.05 71.4225C121.868 71.4225 120.539 71.5702 119.357 72.0133V82.6488C119.357 87.6711 119.357 92.9888 119.062 98.1589C118.914 99.4883 117.732 100.522 116.551 101.556C116.108 101.999 115.517 102.443 115.074 102.886L114.63 103.329L114.335 102.59C114.04 102.147 113.596 101.704 113.153 101.409C112.267 100.375 111.233 99.3406 110.642 98.1589C110.199 97.2726 110.347 96.2386 110.347 95.3523V94.1706V81.3194C110.347 71.8656 110.347 62.1164 110.199 52.515C110.199 45.4246 105.62 40.6978 98.9727 40.5501C91.7346 40.5501 86.8601 45.7201 86.8601 53.2535V122.827L84.9398 124.009L84.792 123.714C83.4626 122.236 81.9855 120.759 80.656 119.282C77.554 116.032 74.3043 112.487 71.0546 109.237C68.1003 106.431 64.4074 104.806 60.5668 104.806Z" fill="#B66F39"/>
</svg>
