<svg width="190" height="190" viewBox="0 0 190 190" fill="none" xmlns="http://www.w3.org/2000/svg">
<path d="M55.6641 85.7969H134.484V94.7031H55.6641V85.7969ZM55.6641 124.984H103.906V133.891H55.6641V124.984Z" fill="#B66F39"/>
<path d="M151.852 182.133H38.1484C35.7734 182.133 33.5469 181.688 31.3203 180.797C29.2422 179.906 27.3125 178.719 25.8281 177.086C24.1953 175.453 23.0078 173.672 22.1172 171.594C21.2266 169.367 20.7812 167.141 20.7812 164.766V46.4609C20.7812 44.0859 21.2266 41.8594 22.1172 39.6328C23.0078 37.5547 24.1953 35.625 25.8281 34.1406C27.4609 32.5078 29.2422 31.3203 31.3203 30.4297C33.5469 29.5391 35.7734 29.0938 38.1484 29.0938H55.3672V37.8516H38.1484C33.3984 37.8516 29.3906 41.7109 29.3906 46.6094V164.914C29.3906 169.664 33.25 173.672 38.1484 173.672H151.703C156.453 173.672 160.461 169.812 160.461 164.914V46.4609C160.461 41.7109 156.602 37.7031 151.703 37.7031H134.633V28.9453H151.852C154.227 28.9453 156.453 29.3906 158.68 30.2812C160.758 31.1719 162.688 32.3594 164.172 33.9922C165.805 35.625 166.992 37.4063 167.883 39.4844C168.773 41.7109 169.219 43.9375 169.219 46.3125V164.617C169.219 166.992 168.773 169.219 167.883 171.445C166.992 173.523 165.805 175.453 164.172 176.938C162.539 178.57 160.758 179.758 158.68 180.648C156.453 181.688 154.227 182.133 151.852 182.133Z" fill="#B66F39"/>
<path d="M138.641 55.2188H51.3594V26.7187C51.3594 20.6328 56.2578 15.7344 62.3438 15.7344H73.625C77.6328 7.71875 85.9453 2.52344 95.1484 2.52344C104.352 2.52344 112.664 7.71875 116.672 15.7344H127.953C134.039 15.7344 138.938 20.6328 138.938 26.7187L138.641 55.2188ZM60.1172 46.4609H130.031V26.7187C130.031 25.5312 128.992 24.4922 127.805 24.4922H110.438L109.398 21.5234C107.32 15.4375 101.531 11.2812 95 11.2812C88.4688 11.2812 82.6797 15.4375 80.6016 21.5234L79.5625 24.4922H62.1953C61.0078 24.4922 59.9688 25.5312 59.9688 26.7187V46.4609H60.1172Z" fill="#B66F39"/>
</svg>
