<svg width="313" height="313" viewBox="0 0 313 313" fill="none" xmlns="http://www.w3.org/2000/svg">
<path d="M217.879 263.452C216.759 263.45 215.677 263.047 214.827 262.317C213.978 261.587 213.418 260.577 213.248 259.47C213.078 258.363 213.309 257.231 213.9 256.28C214.491 255.328 215.403 254.619 216.471 254.281L233.842 248.835C234.436 248.626 235.067 248.538 235.695 248.577C236.324 248.616 236.939 248.782 237.502 249.063C238.066 249.345 238.567 249.737 238.976 250.217C239.384 250.696 239.692 251.253 239.882 251.854C240.071 252.455 240.137 253.087 240.076 253.715C240.016 254.342 239.83 254.95 239.529 255.504C239.228 256.057 238.819 256.545 238.326 256.937C237.833 257.329 237.266 257.618 236.659 257.787L219.288 263.233C218.833 263.382 218.358 263.456 217.879 263.452Z" fill="#B66F39"/>
<path d="M156.5 282.482C155.889 282.499 155.282 282.393 154.713 282.171C154.144 281.949 153.625 281.615 153.187 281.189C152.75 280.763 152.402 280.254 152.164 279.691C151.927 279.128 151.805 278.523 151.805 277.913V125.2C151.801 124.2 152.118 123.225 152.709 122.42C153.301 121.614 154.136 121.019 155.091 120.724L273.656 83.7588C274.361 83.5406 275.106 83.4892 275.834 83.6087C276.562 83.7282 277.252 84.0153 277.85 84.4474C278.441 84.8863 278.922 85.4573 279.253 86.1148C279.585 86.7724 279.758 87.4983 279.759 88.2347V177.659C279.759 178.904 279.265 180.098 278.384 180.979C277.504 181.859 276.31 182.354 275.064 182.354C273.819 182.354 272.625 181.859 271.745 180.979C270.864 180.098 270.369 178.904 270.369 177.659V94.6199L161.32 128.737V277.662C161.324 278.296 161.202 278.925 160.962 279.512C160.721 280.099 160.366 280.632 159.918 281.08C159.469 281.528 158.936 281.883 158.349 282.124C157.763 282.365 157.134 282.487 156.5 282.482Z" fill="#B66F39"/>
<path d="M156.5 282.608C155.38 282.606 154.297 282.203 153.448 281.473C152.599 280.742 152.038 279.733 151.868 278.625C151.698 277.518 151.93 276.387 152.521 275.435C153.112 274.484 154.024 273.775 155.091 273.437L216.346 254.281C216.944 254.058 217.582 253.958 218.219 253.99C218.857 254.021 219.482 254.182 220.056 254.463C220.629 254.744 221.14 255.139 221.555 255.624C221.971 256.109 222.283 256.674 222.473 257.284C222.663 257.894 222.726 258.536 222.659 259.171C222.592 259.806 222.396 260.421 222.083 260.978C221.771 261.535 221.347 262.022 220.84 262.41C220.332 262.798 219.751 263.078 219.131 263.233L158.034 282.389C157.539 282.552 157.02 282.626 156.5 282.608Z" fill="#B66F39"/>
<path d="M175.28 254.438C174.16 254.436 173.077 254.033 172.228 253.303C171.379 252.572 170.818 251.563 170.648 250.455C170.478 249.348 170.71 248.217 171.301 247.265C171.892 246.314 172.804 245.605 173.872 245.267L217.159 231.62C217.754 231.411 218.384 231.323 219.013 231.362C219.641 231.401 220.256 231.567 220.819 231.848C221.383 232.13 221.884 232.522 222.293 233.002C222.701 233.481 223.01 234.038 223.199 234.639C223.388 235.24 223.454 235.872 223.393 236.5C223.333 237.127 223.147 237.735 222.846 238.289C222.545 238.842 222.136 239.33 221.643 239.722C221.15 240.114 220.583 240.403 219.976 240.572L176.814 254.219C176.319 254.382 175.8 254.456 175.28 254.438Z" fill="#B66F39"/>
<path d="M175.28 232.528C174.16 232.526 173.077 232.123 172.228 231.393C171.379 230.662 170.818 229.653 170.648 228.545C170.478 227.438 170.71 226.307 171.301 225.355C171.892 224.404 172.804 223.695 173.872 223.357L206.83 213.059C208.018 212.677 209.308 212.783 210.417 213.352C211.526 213.921 212.364 214.908 212.746 216.095C213.128 217.282 213.023 218.572 212.453 219.682C211.884 220.791 210.897 221.629 209.71 222.011L176.814 232.309C176.319 232.471 175.8 232.546 175.28 232.528Z" fill="#B66F39"/>
<path d="M156.5 282.357C156.032 282.363 155.566 282.289 155.123 282.138L36.621 245.079C35.66 244.789 34.818 244.197 34.2203 243.391C33.6225 242.585 33.3009 241.607 33.3032 240.603V87.9843C33.3032 86.7391 33.7979 85.5449 34.6783 84.6644C35.5588 83.7839 36.753 83.2893 37.9982 83.2893C38.4869 83.2832 38.9733 83.3572 39.438 83.5084L71.5831 93.5244C72.5356 93.8341 73.3661 94.4365 73.9562 95.2458C74.5463 96.0551 74.866 97.03 74.8696 98.0316V162.572C75.2398 163.175 75.4737 163.852 75.5548 164.555C75.6359 165.258 75.5623 165.97 75.3391 166.641C74.9141 167.813 74.0464 168.77 72.9227 169.309C71.7989 169.847 70.5088 169.923 69.3295 169.521L68.6096 169.27C67.6939 168.942 66.9018 168.339 66.3417 167.543C65.7815 166.748 65.4804 165.799 65.4796 164.826V101.475L42.6932 94.3382V237.16L151.93 271.277V128.486L126.358 120.505V181.54C126.358 182.785 125.863 183.979 124.983 184.86C124.102 185.74 122.908 186.235 121.663 186.235C120.418 186.235 119.224 185.74 118.343 184.86C117.463 183.979 116.968 182.785 116.968 181.54V114.12C116.955 113.379 117.118 112.645 117.443 111.979C117.769 111.312 118.247 110.733 118.839 110.287C119.432 109.841 120.121 109.542 120.851 109.414C121.581 109.286 122.332 109.332 123.04 109.55L158.034 120.505C158.962 120.823 159.766 121.428 160.329 122.233C160.891 123.037 161.184 123.999 161.164 124.981V277.662C161.17 278.4 161 279.129 160.668 279.787C160.336 280.446 159.851 281.016 159.254 281.45C158.455 282.035 157.491 282.353 156.5 282.357Z" fill="#B66F39"/>
<path d="M121.663 186.329C120.418 186.329 119.224 185.834 118.343 184.954C117.463 184.073 116.968 182.879 116.968 181.634V114.746C116.849 114.034 116.903 113.304 117.125 112.617C117.3 112.022 117.592 111.467 117.984 110.986C118.376 110.505 118.861 110.107 119.409 109.815C119.957 109.524 120.558 109.345 121.176 109.288C121.794 109.232 122.417 109.3 123.009 109.487C123.968 109.795 124.807 110.395 125.408 111.203C126.008 112.011 126.341 112.988 126.358 113.995V181.54C126.371 182.164 126.258 182.785 126.028 183.366C125.798 183.946 125.454 184.475 125.017 184.921C124.579 185.367 124.058 185.721 123.482 185.963C122.906 186.205 122.288 186.329 121.663 186.329Z" fill="#B66F39"/>
<path d="M70.8945 169.771C70.3634 169.765 69.8362 169.68 69.3295 169.521L68.6096 169.27C67.6939 168.942 66.9018 168.339 66.3417 167.543C65.7815 166.748 65.4804 165.799 65.4796 164.826V98.0316C65.4796 96.7864 65.9743 95.5922 66.8548 94.7117C67.7352 93.8313 68.9294 93.3366 70.1746 93.3366C71.4198 93.3366 72.614 93.8313 73.4945 94.7117C74.375 95.5922 74.8696 96.7864 74.8696 98.0316V162.572C75.2399 163.175 75.4737 163.852 75.5548 164.555C75.6359 165.258 75.5623 165.97 75.3391 166.641C75.0066 167.554 74.4025 168.344 73.6079 168.904C72.8133 169.463 71.8664 169.766 70.8945 169.771Z" fill="#B66F39"/>
<path d="M156.5 129.864C155.892 129.86 155.29 129.736 154.73 129.499C154.169 129.263 153.661 128.918 153.234 128.485C152.806 128.052 152.469 127.539 152.24 126.975C152.011 126.412 151.895 125.808 151.899 125.2C151.899 123.955 152.394 122.761 153.274 121.88C154.155 121 155.349 120.505 156.594 120.505C157.839 120.505 159.033 121 159.914 121.88C160.794 122.761 161.289 123.955 161.289 125.2C161.264 126.451 160.748 127.642 159.852 128.515C158.955 129.387 157.751 129.872 156.5 129.864Z" fill="#B66F39"/>
<path d="M38.0608 92.648C36.9807 92.6424 35.9356 92.2645 35.1017 91.5781C34.2677 90.8917 33.6959 89.9388 33.4827 88.88C33.2695 87.8211 33.4278 86.7212 33.9311 85.7655C34.4343 84.8098 35.2517 84.0569 36.2454 83.6336L155.185 34.117C156.335 33.6355 157.629 33.6305 158.782 34.103C159.936 34.5756 160.854 35.4869 161.336 36.6367C161.817 37.7864 161.822 39.0803 161.35 40.2337C160.877 41.3871 159.966 42.3056 158.816 42.7871L39.8762 92.3037C39.3013 92.5426 38.6832 92.6598 38.0608 92.648Z" fill="#B66F39"/>
<path d="M73.9306 102.82C72.8768 102.797 71.8615 102.42 71.0481 101.75C70.2347 101.079 69.6705 100.155 69.4464 99.1247C69.2224 98.0947 69.3514 97.0193 69.8128 96.0715C70.2742 95.1238 71.0411 94.3589 71.99 93.9L125.732 71.5518C126.875 71.1071 128.148 71.1277 129.276 71.609C130.404 72.0904 131.3 72.9943 131.77 74.1273C132.24 75.2604 132.249 76.5325 131.793 77.6716C131.337 78.8106 130.454 79.726 129.332 80.2219L75.7147 102.445C75.1513 102.689 74.5445 102.816 73.9306 102.82Z" fill="#B66F39"/>
<path d="M121.538 118.752C120.605 118.753 119.694 118.473 118.924 117.948C118.153 117.423 117.559 116.678 117.219 115.81C116.962 115.236 116.823 114.616 116.811 113.987C116.798 113.359 116.912 112.734 117.145 112.15C117.379 111.566 117.727 111.035 118.17 110.588C118.613 110.142 119.141 109.789 119.723 109.55L167.048 89.8623C168.198 89.3808 169.492 89.3758 170.645 89.8483C171.799 90.3209 172.717 91.2322 173.199 92.3819C173.68 93.5317 173.685 94.8256 173.213 95.979C172.74 97.1324 171.829 98.0509 170.679 98.5324L123.353 118.408C122.777 118.643 122.16 118.76 121.538 118.752Z" fill="#B66F39"/>
<path d="M193.278 58.4058C192.654 58.4017 192.036 58.274 191.462 58.0302L155.311 42.7558C154.704 42.5455 154.147 42.213 153.675 41.779C153.202 41.345 152.823 40.8186 152.561 40.2325C152.3 39.6463 152.161 39.0127 152.155 38.3709C152.148 37.7291 152.272 37.0927 152.521 36.501C152.77 35.9093 153.137 35.3748 153.6 34.9307C154.064 34.4865 154.613 34.1421 155.215 33.9187C155.817 33.6953 156.458 33.5976 157.099 33.6317C157.74 33.6658 158.367 33.831 158.941 34.117L195.124 49.3914C195.706 49.6301 196.234 49.9832 196.677 50.4299C197.119 50.8765 197.468 51.4075 197.701 51.9914C197.935 52.5752 198.049 53.2001 198.036 53.8288C198.024 54.4575 197.885 55.0773 197.628 55.6514C197.244 56.4796 196.629 57.1797 195.858 57.6681C195.086 58.1565 194.191 58.4126 193.278 58.4058Z" fill="#B66F39"/>
<path d="M275.096 92.9297C274.472 92.9256 273.855 92.7979 273.28 92.5541L191.462 58.1241C190.871 57.9002 190.332 57.5593 189.876 57.1219C189.42 56.6845 189.057 56.1596 188.808 55.5785C188.56 54.9975 188.432 54.3723 188.431 53.7405C188.43 53.1086 188.556 52.4831 188.803 51.9013C189.05 51.3196 189.411 50.7936 189.866 50.3549C190.321 49.9161 190.859 49.5737 191.449 49.3482C192.04 49.1226 192.669 49.0184 193.301 49.042C193.932 49.0656 194.552 49.2163 195.124 49.4853L276.942 83.9153C277.939 84.3396 278.757 85.0952 279.26 86.0541C279.763 87.013 279.919 88.1162 279.702 89.177C279.485 90.2377 278.907 91.1907 278.068 91.8746C277.228 92.5585 276.178 92.9312 275.096 92.9297Z" fill="#B66F39"/>
<path d="M121.663 186.329C120.87 186.327 120.09 186.125 119.395 185.742C118.701 185.359 118.113 184.807 117.688 184.138L92.648 144.856C92.0207 143.807 91.8274 142.554 92.1092 141.365C92.391 140.175 93.1257 139.143 94.1571 138.486C95.1885 137.83 96.4352 137.602 97.6322 137.85C98.8292 138.099 99.882 138.804 100.567 139.817L125.607 179.099C126.051 179.809 126.298 180.626 126.323 181.463C126.348 182.301 126.149 183.13 125.748 183.866C125.347 184.602 124.757 185.218 124.039 185.651C123.321 186.083 122.501 186.317 121.663 186.329Z" fill="#B66F39"/>
<path d="M70.8945 169.771C70.2295 169.774 69.5718 169.633 68.9666 169.358C68.3614 169.082 67.8232 168.679 67.3889 168.175C66.9801 167.715 66.6662 167.18 66.4653 166.598C66.2644 166.017 66.1805 165.402 66.2183 164.788C66.2561 164.174 66.4149 163.574 66.6857 163.022C66.9564 162.47 67.3337 161.976 67.7958 161.571L93.4931 138.816C94.427 137.985 95.6524 137.56 96.8998 137.634C98.1471 137.707 99.3142 138.273 100.144 139.207C100.974 140.141 101.4 141.366 101.326 142.613C101.253 143.861 100.687 145.028 99.7531 145.858L74.0558 168.582C73.1943 169.37 72.062 169.796 70.8945 169.771Z" fill="#B66F39"/>
<path d="M169.02 99.0645C168.352 99.0686 167.69 98.9298 167.079 98.6576L125.826 80.0967C124.769 79.5395 123.964 78.6002 123.575 77.4701C123.186 76.3399 123.243 75.1041 123.734 74.0145C124.225 72.9249 125.113 72.0635 126.217 71.6059C127.321 71.1483 128.558 71.129 129.676 71.5518L170.804 90.0814C171.777 90.5143 172.574 91.2653 173.064 92.211C173.555 93.1567 173.708 94.241 173.501 95.2857C173.293 96.3305 172.737 97.2736 171.923 97.9603C171.108 98.647 170.085 99.0363 169.02 99.0645Z" fill="#B66F39"/>
<path d="M256.284 263.546C246.9 263.571 237.718 260.812 229.901 255.619C222.084 250.425 215.983 243.03 212.369 234.369C208.754 225.709 207.789 216.17 209.596 206.961C211.403 197.752 215.9 189.285 222.518 182.631C229.137 175.978 237.58 171.436 246.779 169.581C255.979 167.726 265.522 168.64 274.202 172.209C282.882 175.777 290.309 181.84 295.544 189.629C300.778 197.418 303.585 206.585 303.61 215.97C303.627 228.55 298.654 240.623 289.782 249.541C280.911 258.46 268.864 263.496 256.284 263.546ZM256.284 178.034C248.746 178.01 241.37 180.224 235.092 184.397C228.814 188.569 223.916 194.512 221.02 201.472C218.124 208.432 217.359 216.095 218.824 223.49C220.288 230.884 223.916 237.678 229.246 243.008C234.577 248.338 241.37 251.966 248.765 253.431C256.159 254.895 263.823 254.131 270.782 251.235C277.742 248.338 283.685 243.441 287.858 237.162C292.03 230.884 294.245 223.508 294.22 215.97C294.179 205.922 290.169 196.296 283.063 189.191C275.958 182.086 266.333 178.076 256.284 178.034Z" fill="#B66F39"/>
<path d="M251.308 236.065C250.063 236.078 248.862 235.607 247.959 234.75L231.432 218.161C230.603 217.271 230.151 216.094 230.173 214.877C230.194 213.661 230.687 212.501 231.547 211.64C232.407 210.78 233.568 210.288 234.784 210.266C236.001 210.245 237.178 210.696 238.068 211.525L254.625 228.114C255.497 228.999 255.986 230.191 255.986 231.432C255.986 232.674 255.497 233.866 254.625 234.75C253.73 235.599 252.542 236.07 251.308 236.065Z" fill="#B66F39"/>
<path d="M251.308 236.065C250.38 236.055 249.475 235.773 248.707 235.253C247.939 234.733 247.34 233.998 246.986 233.141C246.633 232.283 246.539 231.34 246.718 230.43C246.896 229.519 247.339 228.681 247.99 228.021L275.878 200.132C276.768 199.303 277.945 198.851 279.162 198.873C280.378 198.894 281.539 199.387 282.399 200.247C283.259 201.107 283.752 202.268 283.773 203.484C283.795 204.701 283.343 205.878 282.514 206.768L254.626 234.75C253.73 235.599 252.542 236.07 251.308 236.065Z" fill="#B66F39"/>
</svg>
