<svg width="475" height="58" viewBox="0 0 475 58" fill="none" xmlns="http://www.w3.org/2000/svg">
<path d="M0 0H475V58H0V0Z" fill="#F2F0E4"/>
<g clip-path="url(#clip0_207_1234)">
<path fill-rule="evenodd" clip-rule="evenodd" d="M18.5547 11V28.5758H0V11H18.5547ZM9.7358 28.0324L9.72729 28.0338L9.6724 28.0595L9.65694 28.0624L9.64612 28.0595L9.59123 28.0338C9.5835 28.0309 9.57654 28.0331 9.57267 28.0375L9.56958 28.0448L9.55644 28.3583L9.5603 28.3729L9.56803 28.3824L9.64844 28.4366L9.66003 28.4395L9.66931 28.4366L9.74972 28.3824L9.75899 28.3707L9.76208 28.3583L9.74894 28.0456C9.7474 28.0382 9.74198 28.0331 9.7358 28.0324ZM9.94067 27.9496L9.93062 27.9511L9.7876 28.0192L9.77987 28.0265L9.77755 28.0346L9.79146 28.3495L9.79533 28.3583L9.80151 28.3634L9.95691 28.4315C9.96619 28.4344 9.97469 28.4315 9.97933 28.4256L9.98242 28.4154L9.95614 27.9657C9.95382 27.9569 9.94841 27.9511 9.94067 27.9496ZM9.3879 27.9511C9.38439 27.9496 9.38045 27.9492 9.37669 27.95C9.37292 27.9508 9.36953 27.9527 9.36703 27.9555L9.36239 27.9657L9.3361 28.4154C9.3361 28.4242 9.34151 28.43 9.34924 28.433L9.36084 28.4315L9.51624 28.3634L9.52397 28.3575L9.52706 28.3495L9.5402 28.0346L9.53788 28.0258L9.53015 28.0185L9.3879 27.9511Z" fill="#F2F0E4"/>
<path fill-rule="evenodd" clip-rule="evenodd" d="M9.82403 22.5026C9.67905 22.6399 9.48245 22.717 9.27744 22.717C9.07244 22.717 8.87583 22.6399 8.73085 22.5026L4.35736 18.3599C4.28352 18.2923 4.22462 18.2115 4.1841 18.1221C4.14359 18.0328 4.12226 17.9367 4.12137 17.8395C4.12048 17.7422 4.14004 17.6458 4.17891 17.5558C4.21778 17.4658 4.27519 17.384 4.34778 17.3153C4.42037 17.2465 4.50669 17.1921 4.6017 17.1553C4.69671 17.1185 4.79851 17.1 4.90117 17.1008C5.00382 17.1016 5.10527 17.1219 5.19959 17.1602C5.29391 17.1986 5.37922 17.2544 5.45054 17.3243L9.27744 20.9493L13.1043 17.3243C13.2502 17.1909 13.4454 17.1171 13.6482 17.1188C13.8509 17.1205 14.0448 17.1975 14.1881 17.3333C14.3315 17.469 14.4128 17.6527 14.4145 17.8447C14.4163 18.0367 14.3384 18.2217 14.1975 18.3599L9.82403 22.5026Z" fill="#3D3028"/>
</g>
<path d="M465.889 49L451.889 35C450.778 35.8889 449.5 36.5926 448.056 37.1111C446.611 37.6296 445.074 37.8889 443.444 37.8889C439.407 37.8889 435.991 36.4904 433.196 33.6933C430.4 30.8963 429.001 27.48 429 23.4444C428.999 19.4089 430.397 15.9926 433.196 13.1956C435.994 10.3985 439.41 9 443.444 9C447.479 9 450.896 10.3985 453.696 13.1956C456.496 15.9926 457.893 19.4089 457.889 23.4444C457.889 25.0741 457.63 26.6111 457.111 28.0556C456.593 29.5 455.889 30.7778 455 31.8889L469 45.8889L465.889 49ZM443.444 33.4444C446.222 33.4444 448.584 32.4726 450.529 30.5289C452.474 28.5852 453.446 26.2237 453.444 23.4444C453.443 20.6652 452.471 18.3044 450.529 16.3622C448.587 14.42 446.225 13.4474 443.444 13.4444C440.664 13.4415 438.303 14.4141 436.362 16.3622C434.421 18.3104 433.449 20.6711 433.444 23.4444C433.44 26.2178 434.413 28.5793 436.362 30.5289C438.312 32.4785 440.673 33.4504 443.444 33.4444Z" fill="#3D3028"/>
<defs>
<clipPath id="clip0_207_1234">
<rect width="18.5547" height="17.5758" fill="white" transform="translate(0 11)"/>
</clipPath>
</defs>
</svg>
