<svg width="30" height="30" viewBox="0 0 30 30" fill="none" xmlns="http://www.w3.org/2000/svg">
<path d="M13.6364 30C6.105 30 0 23.2845 0 15C0 6.7155 6.105 4.22743e-06 13.6364 4.22743e-06C15.7536 -0.00174546 17.8421 0.539663 19.7358 1.58122C21.6295 2.62277 23.2764 4.13577 24.5455 6H20.85C19.2753 4.47264 17.3334 3.47754 15.2573 3.1341C13.1813 2.79067 11.0592 3.11349 9.14576 4.06382C7.23233 5.01416 5.60884 6.55164 4.47009 8.49178C3.33135 10.4319 2.72573 12.6923 2.72591 15.0017C2.72608 17.311 3.33204 19.5713 4.47108 21.5112C5.61012 23.4512 7.23384 24.9883 9.14741 25.9383C11.061 26.8883 13.1831 27.2107 15.2591 26.8669C17.3352 26.5231 19.2769 25.5276 20.8514 24H24.5468C23.2776 25.8644 21.6306 27.3776 19.7366 28.4191C17.8426 29.4607 15.7539 30.002 13.6364 30ZM23.1818 21V16.5H12.2727V13.5H23.1818V9L30 15L23.1818 21Z" fill="#42372F"/>
</svg>
