<svg width="25" height="25" viewBox="0 0 25 25" fill="none" xmlns="http://www.w3.org/2000/svg">
<path d="M12.415 0C8.58561 0 4.98958 0.390625 3.07487 0.93689C1.79915 1.32751 0.695641 2.49939 0.464515 4.29688C0.233391 6.17065 0 8.98438 0 12.5C0 16.0156 0.231125 18.75 0.521164 20.7031C0.754554 22.4213 1.8558 23.6725 3.13152 24.0631C5.16405 24.6094 8.64225 25 12.4717 25C16.3011 25 19.7793 24.6094 21.8096 24.0631C23.0876 23.6725 24.1888 22.5006 24.4199 20.7031C24.6533 18.75 24.9434 15.9393 25 12.4237C25 8.90808 24.71 6.09436 24.4199 4.14124C24.1888 2.4231 23.0876 1.17188 21.8096 0.78125C19.7793 0.390625 16.2422 0 12.415 0ZM12.415 1.5625C16.5911 1.5625 19.9538 2.02942 21.5784 2.42004C22.4486 2.73438 23.1442 3.51563 23.2598 4.53186C23.6087 7.03125 23.8398 9.68933 23.8398 12.4237C23.7832 15.7806 23.4932 18.515 23.2598 20.4681C23.0876 21.9513 21.9274 22.4213 21.5784 22.58C19.4893 23.1262 16.0088 23.5138 12.5283 23.5138C9.04786 23.5138 5.51074 23.2025 3.48047 22.58C2.61035 22.2656 1.91471 21.4844 1.79915 20.4681C1.33463 18.28 1.16016 15.39 1.16016 12.5C1.16016 8.90503 1.39355 6.25 1.62467 4.61121C1.79915 3.125 3.01595 2.65503 3.30599 2.49939C5.2207 1.95312 8.76008 1.5625 12.415 1.5625ZM9.28125 6.25V18.75L17.4023 12.5L9.28125 6.25ZM10.4414 8.90808L15.082 12.5L10.4414 16.0919V8.90808Z" fill="black"/>
</svg>
