<svg width="235" height="257" viewBox="0 0 235 257" fill="none" xmlns="http://www.w3.org/2000/svg">
<path d="M224.834 101.031C219.65 101.031 215.459 101.031 215.459 101.031H196.906L196.784 112.531C202.391 115.654 206.084 121.587 206.084 128.5L206.478 192.026H28.5406V128.5C28.5406 121.743 32.3281 115.901 37.9156 112.724V101.031H19.1656C19.1656 101.031 14.9656 101.031 9.79062 101.031C4.60625 101.031 0.415619 96.9293 0.415619 91.875V82.7188C0.415619 77.6553 4.60625 73.5625 9.79062 73.5625C14.9656 73.5625 19.1656 73.5625 19.1656 73.5625V91.875H37.9156V64.4062C37.9156 54.2977 46.3156 46.0938 56.6656 46.0938H178.541C188.891 46.0938 197.291 54.2977 197.291 64.4062L197 91.875H215.459V73.5625C215.459 73.5625 219.65 73.5625 224.834 73.5625C230.009 73.5625 234.209 77.6553 234.209 82.7188V91.875C234.209 96.9293 230.009 101.031 224.834 101.031ZM84.7906 183.438H150.416V174.281H84.7906V183.438ZM84.7906 165.125H150.416V155.969H84.7906V165.125ZM84.7906 146.812H150.416V137.656H84.7906V146.812ZM47.2906 174.281C47.2906 179.335 51.4813 183.438 56.6656 183.438H66.0406C71.2156 183.438 75.4156 179.335 75.4156 174.281C75.4156 169.218 71.2156 165.125 66.0406 165.125H56.6656C51.4906 165.125 47.2906 169.218 47.2906 174.281ZM178.541 73.5625C178.541 68.4991 174.35 64.4062 169.166 64.4062H66.0406C60.8563 64.4062 56.6656 68.4991 56.6656 73.5625V119.344H178.541V73.5625ZM178.541 165.125H169.166C163.981 165.125 159.791 169.218 159.791 174.281C159.791 179.335 163.981 183.438 169.166 183.438H178.541C183.716 183.438 187.916 179.335 187.916 174.281C187.916 169.218 183.716 165.125 178.541 165.125ZM187.916 36.9375H47.2906C36.9406 36.9375 28.5406 45.1415 28.5406 55.25V9.46875C28.5406 4.40534 32.7312 0.3125 37.9156 0.3125H197.291C202.466 0.3125 206.666 4.40534 206.666 9.46875V55.25C206.666 45.1415 198.275 36.9375 187.916 36.9375ZM206.666 210.339C206.666 215.393 202.466 219.495 197.291 219.495H37.9156C32.7312 219.495 28.5406 215.393 28.5406 210.339C28.5406 205.275 28.5406 201.182 28.5406 201.182H206.666C206.666 201.182 206.666 205.275 206.666 210.339ZM75.4156 247.531C75.4156 252.585 71.2156 256.688 66.0406 256.688H56.6656C51.4813 256.688 47.2906 252.585 47.2906 247.531V229.219H75.4156V247.531ZM187.916 247.531C187.916 252.585 183.716 256.688 178.541 256.688H169.166C163.981 256.688 159.791 252.585 159.791 247.531V229.219H187.916V247.531Z" fill="#B66F39"/>
</svg>
