<svg width="60" height="72" viewBox="0 0 60 72" fill="none" xmlns="http://www.w3.org/2000/svg">
<path d="M58.25 23.7351H1.75006C1.31618 23.7351 0.964722 23.3875 0.964722 22.9584V18.2982C0.964722 17.8691 1.31699 17.5215 1.75006 17.5215H58.2492C58.6814 17.5215 59.0345 17.8691 59.0345 18.2982V22.9584C59.0345 23.3875 58.6822 23.7351 58.25 23.7351ZM2.5354 22.1817H57.4646V19.0749H2.5354V22.1817Z" fill="#B66F39"/>
<path d="M58.25 54.7996H1.75006C1.31618 54.7996 0.964722 54.452 0.964722 54.0228V49.3626C0.964722 48.9335 1.31699 48.5859 1.75006 48.5859H58.2492C58.6814 48.5859 59.0345 48.9335 59.0345 49.3626V54.0228C59.0345 54.4528 58.6822 54.7996 58.25 54.7996ZM2.5354 53.2469H57.4646V50.1401H2.5354V53.2469Z" fill="#B66F39"/>
<path d="M50.2956 72.0003H9.70525C9.40872 72.0003 9.13725 71.8349 9.00394 71.5736C8.96596 71.5 5.18632 64.0407 2.55883 54.216C2.44814 53.8005 2.6978 53.3762 3.11713 53.2667C3.53808 53.1557 3.96549 53.4042 4.07699 53.8181C6.30535 62.1532 9.37156 68.7472 10.1949 70.4477H49.8044C50.6277 68.748 53.6923 62.1564 55.9206 53.8237C56.0313 53.409 56.4611 53.1636 56.8805 53.2723C57.2998 53.3826 57.5495 53.8069 57.4388 54.2216C54.8113 64.0439 51.0333 71.5 50.9953 71.5736C50.8636 71.8349 50.5921 72.0003 50.2956 72.0003Z" fill="#B66F39"/>
<path d="M17.7663 71.3935C17.439 71.3935 17.1336 71.1897 17.0229 70.8669C15.1364 65.3597 13.6634 59.739 12.6454 54.1614C12.5678 53.7387 12.8514 53.3352 13.278 53.2585C13.7055 53.1826 14.1135 53.4638 14.1902 53.8849C15.1953 59.3882 16.6489 64.9338 18.5112 70.3675C18.6502 70.7742 18.4296 71.2153 18.0192 71.3527C17.9343 71.3807 17.8495 71.3935 17.7663 71.3935Z" fill="#B66F39"/>
<path d="M40.735 71.3935C40.6518 71.3935 40.5669 71.3807 40.4829 71.3527C40.0716 71.2145 39.8519 70.7734 39.9908 70.3675C41.854 64.9322 43.3067 59.3866 44.3118 53.8849C44.3886 53.4638 44.795 53.1826 45.224 53.2585C45.6506 53.3352 45.9342 53.7387 45.8574 54.1614C44.8386 59.7382 43.3657 65.3589 41.4783 70.8669C41.3676 71.1897 41.063 71.3935 40.735 71.3935Z" fill="#B66F39"/>
<path d="M29.0212 71.3939C28.5873 71.3939 28.2358 71.0463 28.2358 70.6172V54.0228C28.2358 53.5937 28.5873 53.2461 29.0212 53.2461C29.4551 53.2461 29.8065 53.5937 29.8065 54.0228V70.6172C29.8065 71.0463 29.4551 71.3939 29.0212 71.3939Z" fill="#B66F39"/>
<path d="M2.20977 50.1462C1.84458 50.1462 1.51816 49.8937 1.4414 49.5261C0.484777 44.9274 0 40.5549 0 36.5291V35.472C0 31.5421 0.462154 27.2806 1.37353 22.8058C1.45918 22.3863 1.87285 22.1106 2.29865 22.1977C2.72364 22.2824 2.99915 22.6924 2.91351 23.1127C2.02233 27.4868 1.57068 31.6452 1.57068 35.472V36.5291C1.57068 40.4494 2.04495 44.7173 2.98057 49.2129C3.06783 49.6332 2.79474 50.0431 2.36975 50.1294C2.31562 50.1406 2.26229 50.1462 2.20977 50.1462Z" fill="#B66F39"/>
<path d="M57.791 50.1398C57.7377 50.1398 57.6852 50.1342 57.6319 50.123C57.2069 50.0375 56.9338 49.6268 57.0211 49.2065C57.9551 44.7125 58.4285 40.447 58.4285 36.5284V35.4712C58.4285 31.642 57.9761 27.4836 57.0857 23.1103C57.0001 22.69 57.2756 22.28 57.7006 22.1953C58.1272 22.1098 58.5392 22.3831 58.6257 22.8034C59.5371 27.2767 60 31.5389 60 35.4704V36.5276C60 40.5509 59.5152 44.9219 58.5602 49.5189C58.4835 49.8873 58.1554 50.1398 57.791 50.1398Z" fill="#B66F39"/>
<path d="M12.668 50.1446C12.2818 50.1446 11.9449 49.8617 11.8916 49.4726C10.6514 40.5229 10.5415 31.5709 11.5636 22.8681C11.6137 22.4414 12.0071 22.1322 12.4337 22.1857C12.8644 22.2353 13.1738 22.6204 13.1237 23.0471C12.1162 31.6204 12.2261 40.4406 13.4477 49.2616C13.5067 49.6867 13.2062 50.0783 12.7763 50.1374C12.7391 50.1422 12.7036 50.1446 12.668 50.1446Z" fill="#B66F39"/>
<path d="M45.8324 50.1401C45.7969 50.1401 45.7605 50.1377 45.725 50.1329C45.2951 50.0746 44.9946 49.683 45.0527 49.2571C46.2744 40.4369 46.3826 31.6191 45.3767 23.0467C45.3258 22.62 45.6345 22.2348 46.0659 22.1853C46.499 22.1341 46.8868 22.441 46.9361 22.8677C47.959 31.5688 47.8483 40.5192 46.6089 49.4689C46.5555 49.858 46.2194 50.1401 45.8324 50.1401Z" fill="#B66F39"/>
<path d="M29.0203 50.1397C28.5864 50.1397 28.235 49.7921 28.235 49.363V22.9583C28.235 22.5292 28.5864 22.1816 29.0203 22.1816C29.4542 22.1816 29.8057 22.5292 29.8057 22.9583V49.363C29.8057 49.7921 29.4542 50.1397 29.0203 50.1397Z" fill="#B66F39"/>
<path d="M56.765 19.0763C56.4167 19.0763 56.0984 18.8446 56.0063 18.4954C53.7682 10.0052 50.6382 3.27301 49.8044 1.5534H10.1957C9.36189 3.27381 6.23023 10.0108 3.99461 18.4938C3.88553 18.9093 3.45812 19.1554 3.03636 19.05C2.61622 18.9413 2.36495 18.517 2.47483 18.1023C5.10636 8.11941 8.96518 0.502619 9.00396 0.426706C9.13728 0.165409 9.40795 0 9.70447 0H50.2948C50.5921 0 50.8628 0.165409 50.9961 0.426706C51.0349 0.501819 54.8937 8.11941 57.5261 18.1039C57.6351 18.5186 57.3831 18.9429 56.9645 19.0516C56.8975 19.0675 56.8312 19.0763 56.765 19.0763Z" fill="#B66F39"/>
<path d="M13.005 19.0752C12.963 19.0752 12.9193 19.072 12.8765 19.0649C12.4483 18.9953 12.159 18.595 12.2293 18.1723C14.0254 7.41593 16.9309 1.14798 17.0537 0.88588C17.2363 0.495931 17.7025 0.329723 18.0967 0.507917C18.4894 0.688508 18.6607 1.15037 18.4789 1.53952C18.4498 1.60185 15.5379 7.89697 13.7798 18.4248C13.7152 18.8052 13.3823 19.0752 13.005 19.0752Z" fill="#B66F39"/>
<path d="M45.4947 19.075C45.1166 19.075 44.7837 18.8049 44.7207 18.4253C42.9626 7.8967 40.0507 1.60237 40.0216 1.54085C39.839 1.1517 40.0103 0.68983 40.4038 0.509239C40.7972 0.330246 41.2634 0.497253 41.4468 0.887202C41.5688 1.1493 44.4751 7.41565 46.2712 18.1728C46.3415 18.5955 46.0522 18.9959 45.6248 19.0654C45.5804 19.0718 45.5367 19.075 45.4947 19.075Z" fill="#B66F39"/>
<path d="M29.0204 19.0755C28.5865 19.0755 28.235 18.7279 28.235 18.2988V0.776702C28.235 0.347598 28.5865 0 29.0204 0C29.4543 0 29.8057 0.347598 29.8057 0.776702V18.2988C29.8057 18.7279 29.4543 19.0755 29.0204 19.0755Z" fill="#B66F39"/>
</svg>
